PathFileType	4	(X/Y/Z)	C:/Users/opensim2020/Desktop/walking_exp_matlab/subject01_walking09_straight_03.trc																																																																																																																															
DataRate	CameraRate	NumFrames	NumMarkers	Units	OrigDataRate	OrigDataStartFrame	OrigNumFrames																																																																																																																											
100	100	8	43	mm	100	3105	348																																																																																																																											
Frame#	Time	LFHD			RFHD			LBHD			RBHD			C7			T10			CLAV			STRN			RBAK			LSHO			LUPA			LELB			LFRM			LWRA			LWRB			LFIN			RSHO			RUPA			RELB			RFRM			RWRA			RWRB			RFIN			LASI			RASI			LPSI			RPSI			LTHI			LKNE			LTIB			LANK			LHEE			LTOE			RTHI			RKNE			RTIB			RANK			RHEE			RTOE			*39			*40			*41			*42		
		X1	Y1	Z1	X2	Y2	Z2	X3	Y3	Z3	X4	Y4	Z4	X5	Y5	Z5	X6	Y6	Z6	X7	Y7	Z7	X8	Y8	Z8	X9	Y9	Z9	X10	Y10	Z10	X11	Y11	Z11	X12	Y12	Z12	X13	Y13	Z13	X14	Y14	Z14	X15	Y15	Z15	X16	Y16	Z16	X17	Y17	Z17	X18	Y18	Z18	X19	Y19	Z19	X20	Y20	Z20	X21	Y21	Z21	X22	Y22	Z22	X23	Y23	Z23	X24	Y24	Z24	X25	Y25	Z25	X26	Y26	Z26	X27	Y27	Z27	X28	Y28	Z28	X29	Y29	Z29	X30	Y30	Z30	X31	Y31	Z31	X32	Y32	Z32	X33	Y33	Z33	X34	Y34	Z34	X35	Y35	Z35	X36	Y36	Z36	X37	Y37	Z37	X38	Y38	Z38	X39	Y39	Z39	X40	Y40	Z40	X41	Y41	Z41	X42	Y42	Z42	X43	Y43	Z43
																																																																																																																																		
262	2.61	487.87784	1679.38953	-1053.07361	497.15485	1687.62451	-938.97028	380.56042	1615.86743	-1048.49609	387.58249	1622.81775	-927.32007	366.19211	1429.31506	-1002.35321	345.06937	1136.10303	-996.14191	513.62347	1371.02686	-996.75305	564.84735	1217.83728	-1004.57861	321.58948	1231.01697	-927.4223	456.26038	1397.7063	-1158.92725	456.58978	1216.53552	-1250.06409	475.00153	1064.13501	-1258.25916	554.3114	977.11505	-1273.26758	666.70648	901.94781	-1237.00952	623.84491	876.76471	-1270.69531	697.01508	833.76892	-1270.76843	444.98181	1392.02869	-846.7218	388.63623	1187.80762	-752.66553	392.86057	1063.59961	-753.43884	417.9328	946.31592	-723.71124	495.47876	827.62933	-744.67578	452.58521	829.57904	-705.13153	487.49329	749.66211	-709.47137	519.95563	930.41156	-1107.0481	530.18481	939.96454	-891.0376	336.29578	944.58765	-1045.17737	344.36856	950.06836	-899.95844	456.08685	595.4325	-1158.90002	425.57544	462.91568	-1150.37268	292.87531	326.28711	-1160.81738	162.1348	147.66771	-1115.13025	112.48273	147.80376	-1060.14368	258.48804	35.79966	-1115.48242	528.65564	610.61334	-828.91992	570.4411	458.0477	-856.67169	544.04102	283.10651	-844.98511	543.57745	77.71872	-890.59442	496.29468	37.34629	-941.31378	684.49402	42.29126	-891.11346	480.18359	1718.75842	-962.37994	1973.06311	1023.31177	-3101.93286	2012.52502	1022.12628	-3140.74438	NaN	NaN	NaN
263	2.62	494.44525	1680.03979	-1051.57349	503.69882	1688.40027	-937.37476	387.02017	1616.6908	-1046.98364	394.0195	1623.71411	-925.77863	372.55179	1430.06665	-1000.43781	351.83682	1136.77454	-993.7641	520.13885	1371.93701	-994.85309	571.61035	1218.79309	-1002.42352	328.3558	1231.73645	-924.97168	462.68222	1398.38306	-1157.01404	462.39966	1217.15149	-1248.05237	479.72705	1064.68933	-1256.06763	557.82257	976.72388	-1271.38684	669.45435	900.18713	-1234.97461	626.35767	875.51483	-1268.67041	698.87604	831.64478	-1268.80957	451.51447	1393.03381	-844.82483	395.57135	1188.83936	-750.33167	400.47025	1064.55627	-751.15875	426.25314	947.28284	-721.7522	504.34021	829.09357	-743.20422	461.70084	830.81592	-703.32147	497.02936	750.89868	-708.16547	526.73364	931.55371	-1104.61572	536.96716	940.43036	-888.77167	343.0553	945.29401	-1043.09399	351.07516	950.98633	-897.81494	467.97235	595.78094	-1158.29211	439.62756	463.09674	-1150.41309	303.9328	329.85037	-1160.59985	169.66055	153.61331	-1115.42407	121.17952	155.9655	-1059.9397	259.31491	36.04436	-1115.12195	532.81299	610.59717	-827.54584	573.09259	457.68274	-855.32788	545.19305	282.8645	-844.44507	543.95715	77.6895	-890.62592	496.32074	37.40517	-941.33295	684.79468	42.0278	-891.09717	486.77942	1719.80859	-960.98389	1972.99866	1023.85205	-3102.01807	2012.53467	1022.11163	-3140.8208	NaN	NaN	NaN
264	2.63	500.95602	1680.59558	-1050.11853	510.26627	1689.07434	-935.91492	393.55621	1617.28198	-1045.31287	400.53146	1624.51501	-924.08856	379.02487	1430.56201	-998.36279	358.55896	1137.32996	-991.38837	526.62622	1372.69348	-993.01001	578.30737	1219.62585	-1000.32361	335.07712	1232.40308	-922.52405	469.06183	1398.91602	-1155.1925	468.07413	1217.58972	-1245.95715	484.36743	1065.01892	-1254.00134	561.42828	976.21716	-1269.297	672.06537	898.31177	-1232.98596	628.76843	874.18091	-1266.71521	700.92499	829.61877	-1266.86255	458.14703	1393.93311	-842.97559	402.75931	1189.81421	-747.93054	408.09006	1065.41919	-748.85297	434.64258	948.22034	-719.71362	513.35883	830.52423	-741.67816	470.76395	831.87317	-701.63306	506.63589	752.09558	-706.84027	533.21619	932.57312	-1101.95923	543.42432	940.7655	-886.61005	349.56958	945.84351	-1041.10547	357.66412	951.58081	-895.73944	480.07272	596.11511	-1157.83789	453.81598	463.28506	-1150.7052	315.67496	333.36578	-1160.57019	178.02103	159.46918	-1115.76184	130.55751	163.81157	-1059.7312	260.62738	36.54563	-1114.52014	536.92078	610.45337	-826.26794	575.86871	457.3736	-854.34778	546.27521	282.55112	-843.7738	544.47974	77.58649	-890.56055	496.31854	37.40179	-941.34515	684.96893	41.75168	-891.10706	493.32632	1720.30115	-959.40948	1973.12097	1023.96008	-3102.00342	2012.60645	1022.07611	-3140.57422	NaN	NaN	NaN
265	2.64	507.43887	1681.00598	-1048.7052	516.73041	1689.68213	-934.5069	399.95062	1617.81873	-1043.88953	406.91315	1625.15088	-922.71362	385.40491	1430.98877	-996.66803	365.06119	1137.79492	-989.0592	533.0863	1373.2771	-991.23322	584.94037	1220.28784	-998.37109	341.73297	1232.99878	-920.15338	475.3829	1399.34155	-1153.31946	473.6687	1217.86011	-1243.78455	489.03598	1065.30164	-1251.87341	564.98694	975.66016	-1267.19556	674.38422	896.09668	-1230.7323	631.02258	872.78314	-1264.89954	702.68219	827.33545	-1265.20703	464.74731	1394.69287	-841.16974	410.04654	1190.66809	-745.54285	415.90289	1066.18262	-746.41272	443.22681	949.06049	-717.5462	522.4657	831.82324	-740.20801	480.31302	832.98181	-699.79346	516.54803	753.35596	-705.43292	539.78027	933.24554	-1100.04541	549.75305	941.02887	-884.44299	355.91028	946.15503	-1039.21887	363.90228	952.05994	-893.90222	492.33621	596.33582	-1157.19714	468.01093	463.3576	-1150.75708	327.87347	336.71414	-1160.56055	187.24327	165.20741	-1115.99695	140.47859	171.42334	-1059.67212	262.58432	37.59813	-1113.80615	540.64502	610.32922	-824.97168	578.4541	456.85916	-852.96155	547.26599	282.27914	-843.03979	544.31903	77.48238	-890.63293	496.319	37.46254	-941.36383	685.19269	41.53411	-891.06091	499.7345	1720.59314	-958.14142	1973.15405	1023.45514	-3101.90576	2012.5376	1022.06122	-3140.6167	NaN	NaN	NaN
266	2.65	513.8797	1681.40894	-1047.35522	523.18622	1690.1947	-933.09656	406.34677	1618.17004	-1042.32507	413.28629	1625.69568	-921.19733	391.92407	1431.25842	-994.82227	371.51193	1138.26294	-986.85175	539.54932	1373.78113	-989.53986	591.42487	1220.75659	-996.53259	348.42944	1233.52417	-917.76581	481.59702	1399.67639	-1151.59277	479.18362	1217.99939	-1241.68994	493.56091	1065.4491	-1249.81653	568.42371	975.00305	-1265.2323	676.92822	894.12811	-1229.07349	633.16724	871.31396	-1263.23938	704.10474	824.90741	-1263.34082	471.45911	1395.41492	-839.36737	417.36176	1191.40625	-743.11078	423.70111	1066.83496	-743.99329	451.87772	949.8374	-715.35809	531.6947	833.06696	-738.61566	489.77887	833.91058	-698.03937	526.42078	754.4953	-703.9455	545.81586	933.80725	-1097.71887	555.84033	941.26166	-882.3866	362.0267	946.30566	-1037.45959	369.93369	952.49902	-892.22375	504.41116	596.55603	-1156.71509	482.13232	463.54065	-1150.8363	340.52982	339.9852	-1160.44983	196.80141	170.71933	-1116.28992	150.57224	178.75101	-1059.56274	265.82269	39.62381	-1113.1001	544.23975	610.16925	-823.75012	581.14136	456.29495	-851.65381	548.41718	281.92151	-842.12329	544.46082	77.33652	-890.60596	496.34235	37.59007	-941.36652	685.35736	41.31932	-891.04236	505.98691	1720.98572	-956.84351	1973.15027	1023.38818	-3101.91382	2012.54321	1021.98016	-3140.71582	NaN	NaN	NaN
267	2.66	520.2674	1681.65771	-1045.77612	529.55206	1690.57751	-931.7489	412.74554	1618.54102	-1040.92542	419.72806	1626.19312	-919.78717	398.19305	1431.78589	-993.20367	377.82425	1138.63379	-984.76086	545.97345	1374.15039	-987.9295	597.84863	1221.08276	-994.82312	355.00305	1234.01025	-915.46515	487.85364	1399.90417	-1149.91077	484.62787	1217.99036	-1239.57166	497.99072	1065.46912	-1247.77576	571.95691	974.30743	-1263.2478	679.18744	891.81549	-1227.27185	635.1676	869.6908	-1261.65515	705.55426	822.39844	-1261.65283	478.13724	1395.96362	-837.76685	424.8222	1192.0033	-740.72485	431.64282	1067.41431	-741.56256	460.69818	950.51929	-713.19971	541.01349	834.25366	-737.04089	499.35651	834.86108	-696.06671	536.41241	755.56177	-702.42957	551.88824	934.15094	-1095.83997	561.73834	941.38141	-880.35571	367.98587	946.23798	-1035.88293	375.67426	952.44885	-890.89154	516.2804	596.84454	-1156.17078	495.94217	463.81396	-1150.87244	353.51505	342.60406	-1160.31689	206.895	176.57561	-1116.00452	160.6902	185.83102	-1059.58911	270.81741	42.5274	-1112.26392	547.69293	610.13977	-822.39392	584.06506	456.06451	-850.47333	549.66943	281.84689	-841.42584	544.88141	77.32338	-890.51929	496.3338	37.57809	-941.33862	685.52063	41.10212	-891.0481	512.41272	1721.38147	-955.55029	1973.11902	1023.45654	-3101.92407	2012.43738	1021.99817	-3140.74146	NaN	NaN	NaN
268	2.67	526.63635	1681.98523	-1044.70435	535.9892	1691.03723	-930.39032	419.16861	1618.79333	-1039.54785	426.11667	1626.56726	-918.4082	404.65887	1432.12952	-991.34851	384.06714	1139.05981	-982.78442	552.39636	1374.43152	-986.38983	604.15723	1221.30383	-993.2489	361.39719	1234.52869	-913.33197	494.07895	1400.04968	-1148.34778	490.01016	1217.87317	-1237.54004	502.30118	1065.36108	-1245.56885	575.01947	973.38177	-1261.48096	681.10748	889.34998	-1225.43896	637.02374	867.96759	-1260.05176	706.96448	819.93597	-1260.3584	484.84753	1396.45142	-836.08319	432.47778	1192.50024	-738.30994	439.65878	1067.89465	-739.24023	469.56946	951.09717	-711.0589	550.40247	835.33374	-735.4187	509.42697	835.71936	-694.32751	546.409	756.53503	-700.81384	557.97809	934.49432	-1094.20068	567.40057	941.56122	-878.44214	373.91202	946.02734	-1034.48047	381.25644	952.63342	-889.34711	527.81445	597.25818	-1155.76404	509.48508	464.19803	-1150.70276	366.737	344.8486	-1160.31055	217.16705	182.06952	-1115.4126	171.11789	192.34573	-1059.04028	277.70163	46.07852	-1111.99878	550.95166	609.95197	-821.31915	587.2168	455.86484	-848.95294	551.50122	281.59177	-840.71924	544.92804	77.32005	-890.55328	496.31741	37.70997	-941.29193	685.67725	40.92033	-891.09424	519.00043	1722.00183	-954.21814	1973.0553	1023.91254	-3101.93579	2012.50452	1021.98755	-3140.55591	NaN	NaN	NaN
269	2.68	533.00006	1682.23816	-1043.37891	542.31403	1691.349	-929.23456	425.51401	1619.0105	-1038.20703	432.46976	1626.89465	-917.20551	410.98837	1432.5072	-989.80005	390.09995	1139.40161	-980.93665	558.73218	1374.64819	-984.9328	610.36066	1221.44189	-991.79065	367.79282	1234.97229	-911.2951	500.33823	1400.13403	-1146.83301	495.24289	1217.69336	-1235.63879	506.56631	1065.23401	-1243.4364	578.26563	972.43958	-1259.55249	683.05847	886.82855	-1223.91284	638.67871	866.15417	-1258.58984	708.03284	817.14136	-1258.71216	491.53134	1396.91113	-834.56079	440.28662	1192.93726	-736.0459	447.79074	1068.24744	-736.86237	478.47842	951.67474	-708.90411	559.81866	836.34497	-733.70996	518.80286	836.43951	-692.23212	556.58813	757.6098	-699.07837	564.27539	934.75165	-1093.02795	572.88104	941.61505	-876.60754	379.70142	945.68451	-1033.21033	386.73022	952.55585	-888.23029	539.06061	597.92102	-1155.27332	522.93549	464.76401	-1150.2771	379.99326	346.60382	-1160.1825	227.80186	187.39375	-1114.20056	181.93076	197.62337	-1057.70447	286.75467	50.59414	-1112.96704	554.43719	609.84161	-820.32843	590.19708	455.25946	-848.12036	553.89362	281.37418	-839.85052	544.86749	77.18878	-890.59479	496.37393	37.78379	-941.27039	685.92828	40.72714	-891.15265	525.2608	1722.14319	-953.01727	1973.08813	1023.99719	-3102.021	2012.5072	1021.98773	-3140.5686	NaN	NaN	NaN
